<svg id="Layer_1" data-name="Layer 1" xmlns="http://www.w3.org/2000/svg" viewBox="0 0 31 21"><path d="M10.5,0h0A10.5,10.5,0,0,1,21,10.5h0A10.5,10.5,0,0,1,10.5,21h0A10.5,10.5,0,0,1,0,10.5H0A10.5,10.5,0,0,1,10.5,0Z" style="fill:#ff9800;opacity:0.25"/><path d="M15.5,0h0A10.5,10.5,0,0,1,26,10.5h0A10.5,10.5,0,0,1,15.5,21h0A10.5,10.5,0,0,1,5,10.5H5A10.5,10.5,0,0,1,15.5,0Z" style="fill:#ff9800;opacity:0.25"/><path d="M20.5,0h0A10.5,10.5,0,0,1,31,10.5h0A10.5,10.5,0,0,1,20.5,21h0A10.5,10.5,0,0,1,10,10.5h0A10.5,10.5,0,0,1,20.5,0Z" style="fill:#ff9800;fill-opacity:0.25"/></svg>